HIERARCHY
ROOT hip
{
  OFFSET 0 0 0
  CHANNELS 6 Xposition Yposition Zposition Zrotation Yrotation Xrotation
  JOINT abdomen
  {
    OFFSET 0 20.6881 -0.73152
    CHANNELS 3 Zrotation Xrotation Yrotation
    JOINT chest
    {
      OFFSET 0 11.7043 -0.48768
      CHANNELS 3 Zrotation Xrotation Yrotation
      JOINT neck
      {
        OFFSET 0 22.1894 -2.19456
        CHANNELS 3 Zrotation Xrotation Yrotation
        JOINT head
        {
          OFFSET -0.24384 7.07133 1.2192
          CHANNELS 3 Zrotation Xrotation Yrotation
          JOINT leftEye
          {
            OFFSET 4.14528 8.04674 8.04672
            CHANNELS 3 Zrotation Xrotation Yrotation
            End Site
            {
              OFFSET 1 0 0
            }
          }
          JOINT rightEye
          {
            OFFSET -3.6576 8.04674 8.04672
            CHANNELS 3 Zrotation Xrotation Yrotation
            End Site
            {
              OFFSET 1 0 0
            }
          }
        }
      }
      JOINT rCollar
      {
        OFFSET -2.68224 19.2634 -4.8768
        CHANNELS 3 Zrotation Xrotation Yrotation
        JOINT rShldr
        {
          OFFSET -8.77824 -1.95073 1.46304
          CHANNELS 3 Zrotation Xrotation Yrotation
          JOINT rForeArm
          {
            OFFSET -28.1742 -1.7115 0.48768
            CHANNELS 3 Zrotation Xrotation Yrotation
            JOINT rHand
            {
              OFFSET -22.5879 0.773209 7.07136
              CHANNELS 3 Zrotation Xrotation Yrotation
              JOINT rThumb1
              {
                OFFSET -1.2192 -0.487915 3.41376
                CHANNELS 3 Zrotation Xrotation Yrotation
                JOINT rThumb2
                {
                  OFFSET -3.37035 -0.52449 3.41376
                  CHANNELS 3 Zrotation Xrotation Yrotation
                  End Site
                  {
                    OFFSET -1.78271 -1.18214 1.43049
                  }
                }
              }
              JOINT rIndex1
              {
                OFFSET -7.75947 0.938293 5.60832
                CHANNELS 3 Zrotation Xrotation Yrotation
                JOINT rIndex2
                {
                  OFFSET -2.54057 -0.884171 1.56538
                  CHANNELS 3 Zrotation Xrotation Yrotation
                  End Site
                  {
                    OFFSET -1.62519 -0.234802 1.16502
                  }
                }
              }
              JOINT rMid1
              {
                OFFSET -8.24714 1.18213 3.41376
                CHANNELS 3 Zrotation Xrotation Yrotation
                JOINT rMid2
                {
                  OFFSET -3.10165 -0.590103 1.0647
                  CHANNELS 3 Zrotation Xrotation Yrotation
                  End Site
                  {
                    OFFSET -2.48547 -0.328903 0.83742
                  }
                }
              }
              JOINT rRing1
              {
                OFFSET -8.82822 0.546677 1.51678
                CHANNELS 3 Zrotation Xrotation Yrotation
                JOINT rRing2
                {
                  OFFSET -2.60934 -0.819778 -0.0198488
                  CHANNELS 3 Zrotation Xrotation Yrotation
                  End Site
                  {
                    OFFSET -2.33842 -0.294052 0.168128
                  }
                }
              }
              JOINT rPinky1
              {
                OFFSET -8.27202 -0.0477905 -0.4584
                CHANNELS 3 Zrotation Xrotation Yrotation
                JOINT rPinky2
                {
                  OFFSET -1.82734 -0.647385 -0.700984
                  CHANNELS 3 Zrotation Xrotation Yrotation
                  End Site
                  {
                    OFFSET -1.69225 -0.51767 -0.607171
                  }
                }
              }
            }
          }
        }
      }
      JOINT lCollar
      {
        OFFSET 2.68224 19.2634 -4.8768
        CHANNELS 3 Zrotation Xrotation Yrotation
        JOINT lShldr
        {
          OFFSET 8.77824 -1.95073 1.46304
          CHANNELS 3 Zrotation Xrotation Yrotation
          JOINT lForeArm
          {
            OFFSET 28.1742 -1.7115 0.48768
            CHANNELS 3 Zrotation Xrotation Yrotation
            JOINT lHand
            {
              OFFSET 22.5879 0.773209 7.07136
              CHANNELS 3 Zrotation Xrotation Yrotation
              JOINT lThumb1
              {
                OFFSET 1.2192 -0.487915 3.41376
                CHANNELS 3 Zrotation Xrotation Yrotation
                JOINT lThumb2
                {
                  OFFSET 3.37035 -0.52449 3.41376
                  CHANNELS 3 Zrotation Xrotation Yrotation
                  End Site
                  {
                    OFFSET 1.78271 -1.18214 1.43049
                  }
                }
              }
              JOINT lIndex1
              {
                OFFSET 7.75947 0.938293 5.60832
                CHANNELS 3 Zrotation Xrotation Yrotation
                JOINT lIndex2
                {
                  OFFSET 2.54057 -0.884171 1.56538
                  CHANNELS 3 Zrotation Xrotation Yrotation
                  End Site
                  {
                    OFFSET 1.62519 -0.234802 1.16502
                  }
                }
              }
              JOINT lMid1
              {
                OFFSET 8.24714 1.18213 3.41376
                CHANNELS 3 Zrotation Xrotation Yrotation
                JOINT lMid2
                {
                  OFFSET 3.10165 -0.590103 1.0647
                  CHANNELS 3 Zrotation Xrotation Yrotation
                  End Site
                  {
                    OFFSET 2.48547 -0.328903 0.83742
                  }
                }
              }
              JOINT lRing1
              {
                OFFSET 8.82822 0.546677 1.51678
                CHANNELS 3 Zrotation Xrotation Yrotation
                JOINT lRing2
                {
                  OFFSET 2.60934 -0.819778 -0.0198488
                  CHANNELS 3 Zrotation Xrotation Yrotation
                  End Site
                  {
                    OFFSET 2.33842 -0.294052 0.168128
                  }
                }
              }
              JOINT lPinky1
              {
                OFFSET 8.27202 -0.0477905 -0.4584
                CHANNELS 3 Zrotation Xrotation Yrotation
                JOINT lPinky2
                {
                  OFFSET 1.82734 -0.647385 -0.700984
                  CHANNELS 3 Zrotation Xrotation Yrotation
                  End Site
                  {
                    OFFSET 1.69225 -0.51767 -0.607171
                  }
                }
              }
            }
          }
        }
      }
    }
  }
  JOINT rButtock
  {
    OFFSET -8.77824 4.35084 1.2192
    CHANNELS 3 Zrotation Xrotation Yrotation
    JOINT rThigh
    {
      OFFSET 0 -1.70687 -2.19456
      CHANNELS 3 Zrotation Xrotation Yrotation
      JOINT rShin
      {
        OFFSET 0 -36.8199 0.73152
        CHANNELS 3 Zrotation Xrotation Yrotation
        JOINT rFoot
        {
          OFFSET 0.73152 -45.1104 -5.12064
          CHANNELS 3 Zrotation Xrotation Yrotation
          End Site
          {
            OFFSET -1.1221 -3.69964 12.103
          }
        }
      }
    }
  }
  JOINT lButtock
  {
    OFFSET 8.77824 4.35084 1.2192
    CHANNELS 3 Zrotation Xrotation Yrotation
    JOINT lThigh
    {
      OFFSET 0 -1.70687 -2.19456
      CHANNELS 3 Zrotation Xrotation Yrotation
      JOINT lShin
      {
        OFFSET 0 -36.8199 0.73152
        CHANNELS 3 Zrotation Xrotation Yrotation
        JOINT lFoot
        {
          OFFSET -0.73152 -45.1104 -5.12064
          CHANNELS 3 Zrotation Xrotation Yrotation
          End Site
          {
            OFFSET 1.1221 -3.69964 12.103
          }
        }
      }
    }
  }
}
MOTION
Frames:	6
Frame Time:	0.00833333
55.5396 85.1388 61.7277 0.0 0.0 0.0 0.41059 -0.00336424 0.0117806 0.113459 -0.00539519 0.0196593 -9.55188e-15 0.0 6.21205e-18 -2.87151e-14 3.18055e-15 -1.55301e-18 -0.0 0.0 0.0 -0.0 0.0 0.0 -4.77232e-15 -1.55301e-18 1.49089e-16 -9.86523e-14 -1.80149e-16 3.97569e-16 -1.72689e-12 5.13858e-13 3.49861e-14 -1.97416e-11 -5.31699e-13 -6.36111e-14 -4.65729e-11 -4.11743e-14 -2.8625e-14 -8.04362e-11 -6.67917e-14 -4.6118e-14 -4.65669e-11 -3.81667e-14 -3.49861e-14 7.73091 5.47488 0.417314 -4.65741e-11 -4.14466e-14 -2.54444e-14 2.90554 0.965183 0.102902 -4.65654e-11 -4.12478e-14 -3.02153e-14 10.2786 0.731801 0.0259123 -4.65778e-11 -3.93594e-14 -1.90833e-14 2.22167 -0.733487 -0.20892 -4.86905e-15 -1.94126e-18 -1.49089e-16 -1.0218e-13 -1.98785e-16 -1.19271e-15 -1.72401e-12 -5.22207e-13 9.54166e-15 -1.97489e-11 4.89507e-13 -1.90833e-14 -4.65762e-11 -6.98261e-14 -2.8625e-14 -8.04295e-11 -1.24042e-13 -4.77083e-14 -4.65816e-11 -6.87795e-14 -1.59028e-14 -7.73091 5.47488 -0.417314 -4.6575e-11 -7.00716e-14 -3.18055e-14 -2.90554 0.965183 -0.102902 -4.65846e-11 -6.9674e-14 -2.94201e-14 -10.2786 0.731801 -0.0259123 -4.65729e-11 -6.87795e-14 -3.49861e-14 -2.22167 -0.733487 0.20892 -2.03217e-16 0.0 -3.88251e-19 0.77061 -4.17183 -0.0656818 -0.00265491 2.00555 -0.0182707 -0.461836 2.16687 0.0961017 2.03217e-16 0.0 3.88251e-19 -0.143229 -2.55995 0.0260683 0.00716316 -0.91409 0.0621715 0.453768 3.47457 -0.121224
56.3502 83.5205 56.5016 -179.571 -3.7384 -151.187 -0.926163 -9.03968 -0.768635 0.690138 3.41954 -0.350374 -1.11251 4.47879 0.0206917 2.76264 -5.54699 0.309793 -0.0 0.0 0.0 -0.0 0.0 0.0 -1.88274e-14 -3.49142e-14 1.05496e-14 23.2779 1.80183 -0.480432 -3.86473 -1.69089 6.10515 0.00124087 0.781488 0.109794 -7.1602e-11 -5.36399e-11 3.01075e-10 -1.22901e-10 -9.27976e-11 5.20642e-10 -7.15961e-11 -5.36369e-11 3.01064e-10 7.73091 5.47488 0.417314 -7.16028e-11 -5.36396e-11 3.01078e-10 2.90554 0.965183 0.102902 -7.15963e-11 -5.36393e-11 3.01072e-10 10.2786 0.731801 0.0259123 -7.16063e-11 -5.36378e-11 3.01084e-10 2.22167 -0.733487 -0.20892 -1.89065e-14 -3.49116e-14 1.02844e-14 -21.2865 5.24843 -0.924022 2.72524 -1.04074 -4.44702 -0.0106071 2.28487 -0.320196 1.71567e-10 -4.88273e-11 -2.90306e-10 2.94555e-10 -8.51699e-11 -5.03369e-10 1.71562e-10 -4.8826e-11 -2.90293e-10 -7.73091 5.47488 -0.417314 1.71565e-10 -4.88273e-11 -2.90312e-10 -2.90554 0.965183 -0.102902 1.7156e-10 -4.8827e-11 -2.90308e-10 -10.2786 0.731801 -0.0259123 1.71572e-10 -4.88254e-11 -2.90315e-10 -2.22167 -0.733487 0.20892 -2.03217e-16 0.0 -3.88251e-19 0.517936 -11.6928 2.05075 0.00279237 3.69135 0.031798 -0.627866 -2.37008 -2.09723 2.03217e-16 0.0 3.88251e-19 0.778317 -10.008 -2.55589 0.00589998 0.996593 0.0269164 0.505081 1.46714 1.25942
56.3341 83.5198 56.4646 -179.64 -3.8279 -151.358 -2.62203 -18.5872 -1.66084 1.34877 7.03972 -0.745979 -2.29151 9.21497 0.0429738 5.74935 -11.4109 0.647103 -0.0 0.0 0.0 -0.0 0.0 0.0 -3.40482e-14 -7.21627e-14 2.41151e-14 47.9184 3.70581 -0.989835 -7.55875 -3.41294 12.5728 -0.000704146 1.60618 0.225727 -1.16605e-10 -8.0049e-11 6.23726e-10 -1.99857e-10 -1.38465e-10 1.07869e-09 -1.16599e-10 -8.00465e-11 6.23712e-10 7.73091 5.47488 0.417314 -1.16605e-10 -8.00481e-11 6.23729e-10 2.90554 0.965183 0.102902 -1.16601e-10 -8.00477e-11 6.23722e-10 10.2786 0.731801 0.0259123 -1.16608e-10 -8.00466e-11 6.23736e-10 2.22167 -0.733487 -0.20892 -3.41062e-14 -7.21567e-14 2.38883e-14 -43.6022 10.7926 -1.92716 5.43106 -2.12002 -9.15274 0.00603597 4.70115 -0.660538 3.92362e-10 -1.08841e-10 -6.00591e-10 6.73999e-10 -1.89683e-10 -1.04131e-09 3.92357e-10 -1.08839e-10 -6.00576e-10 -7.73091 5.47488 -0.417314 3.92357e-10 -1.08841e-10 -6.00599e-10 -2.90554 0.965183 -0.102902 3.92355e-10 -1.0884e-10 -6.00594e-10 -10.2786 0.731801 -0.0259123 3.92368e-10 -1.08838e-10 -6.00602e-10 -2.22167 -0.733487 0.20892 -2.03217e-16 0.0 -3.88251e-19 0.888303 -19.6038 4.45784 0.00531724 5.47389 0.0847267 -1.18297 -7.14861 -4.44515 2.03217e-16 0.0 3.88251e-19 0.988607 -17.8256 -5.47205 0.00709743 3.01735 -0.0103835 0.664552 -0.654567 2.71968
56.34 83.5184 56.4913 -179.618 -3.7514 -151.238 -4.415 -27.0911 -2.58455 1.97802 10.2677 -1.10629 -3.34748 13.4364 0.0636271 8.47455 -16.639 0.965457 -0.0 0.0 0.0 -0.0 0.0 0.0 -4.69375e-14 -1.0474e-13 3.13505e-14 69.9248 5.40398 -1.44702 -10.5304 -4.84273 18.3754 -0.00526897 2.34443 0.329627 -1.2166e-10 -1.60837e-10 9.03281e-10 -2.07831e-10 -2.78259e-10 1.56202e-09 -1.21655e-10 -1.60835e-10 9.03263e-10 7.73091 5.47488 0.417314 -1.2166e-10 -1.60836e-10 9.03284e-10 2.90554 0.965183 0.102902 -1.21658e-10 -1.60835e-10 9.03276e-10 10.2786 0.731801 0.0259123 -1.21663e-10 -1.60835e-10 9.03291e-10 2.22167 -0.733487 -0.20892 -4.69813e-14 -1.04731e-13 3.11513e-14 -63.3352 15.7286 -2.86791 7.69535 -3.04708 -13.3581 0.045258 6.85375 -0.966732 6.07853e-10 -1.46342e-10 -8.70862e-10 1.04452e-09 -2.55262e-10 -1.51001e-09 6.07849e-10 -1.4634e-10 -8.70846e-10 -7.73091 5.47488 -0.417314 6.07846e-10 -1.46342e-10 -8.70871e-10 -2.90554 0.965183 -0.102902 6.07848e-10 -1.46342e-10 -8.70865e-10 -10.2786 0.731801 -0.0259123 6.07861e-10 -1.46339e-10 -8.70874e-10 -2.22167 -0.733487 0.20892 -2.03217e-16 0.0 -3.88251e-19 1.85023 -26.5901 6.88694 0.00478786 7.06295 0.132722 -2.01588 -11.3747 -6.60873 2.03217e-16 0.0 3.88251e-19 0.437324 -24.6996 -8.37388 0.0104359 4.81796 -0.0437449 0.897761 -2.54041 4.02299
56.3343 83.5192 56.4988 -179.646 -3.699 -151.205 -5.85109 -33.0061 -3.34691 2.43817 12.517 -1.36321 -4.08879 16.3708 0.0787328 10.4119 -20.2792 1.20213 -0.0 0.0 0.0 -0.0 0.0 0.0 -5.39979e-14 -1.25637e-13 2.27608e-14 85.2813 6.58908 -1.7682 -12.4369 -5.75975 22.4586 -0.0100889 2.8666 0.403215 -2.68471e-11 -3.77573e-10 1.07509e-09 -4.33486e-11 -6.53369e-10 1.85856e-09 -2.68419e-11 -3.77569e-10 1.07508e-09 7.73091 5.47488 0.417314 -2.68469e-11 -3.77571e-10 1.0751e-09 2.90554 0.965183 0.102902 -2.68457e-11 -3.77571e-10 1.07509e-09 10.2786 0.731801 0.0259123 -2.68498e-11 -3.7757e-10 1.0751e-09 2.22167 -0.733487 -0.20892 -5.40452e-14 -1.25627e-13 2.25621e-14 -76.9874 19.1597 -3.56155 9.19289 -3.6651 -16.2963 0.0862413 8.34797 -1.18169 8.10089e-10 -1.27563e-10 -1.0411e-09 1.39275e-09 -2.23507e-10 -1.80564e-09 8.10084e-10 -1.27561e-10 -1.04108e-09 -7.73091 5.47488 -0.417314 8.10081e-10 -1.27562e-10 -1.04111e-09 -2.90554 0.965183 -0.102902 8.10083e-10 -1.27562e-10 -1.0411e-09 -10.2786 0.731801 -0.0259123 8.10097e-10 -1.27559e-10 -1.04111e-09 -2.22167 -0.733487 0.20892 -2.03217e-16 0.0 -3.88251e-19 2.94172 -31.398 8.8273 0.00285692 8.16835 0.167707 -2.79401 -14.288 -8.18283 2.03217e-16 0.0 3.88251e-19 -0.4152 -29.4063 -10.6379 0.0141297 6.06822 -0.0670364 1.11001 -3.84526 4.92729
56.3346 83.5197 56.5022 -179.646 -3.684 -151.19 -6.44071 -35.3137 -3.67579 2.61409 13.3945 -1.46334 -4.38501 17.5032 0.0840708 11.1809 -21.6977 1.29662 -0.0 0.0 0.0 -0.0 0.0 0.0 -5.36123e-14 -1.37936e-13 -1.97993e-14 91.3038 7.05166 -1.90274 -13.1666 -6.1107 24.1047 -0.0124999 3.09089 0.43485 2.81349e-10 -9.64218e-10 1.1565e-09 4.90034e-10 -1.66875e-09 1.99769e-09 2.81353e-10 -9.64209e-10 1.15648e-09 7.73091 5.47488 0.417314 2.81349e-10 -9.64216e-10 1.1565e-09 2.90554 0.965183 0.102902 2.81351e-10 -9.64216e-10 1.1565e-09 10.2786 0.731801 0.0259123 2.81346e-10 -9.64215e-10 1.15651e-09 2.22167 -0.733487 -0.20892 -5.36985e-14 -1.37928e-13 -2.00509e-14 -82.3081 20.4963 -3.83736 9.76262 -3.90012 -17.4504 0.10511 8.92162 -1.26486 1.08638e-09 -1.1727e-11 -1.1509e-09 1.86914e-09 -2.43827e-11 -1.99718e-09 1.08637e-09 -1.17272e-11 -1.15088e-09 -7.73091 5.47488 -0.417314 1.08637e-09 -1.17281e-11 -1.1509e-09 -2.90554 0.965183 -0.102902 1.08637e-09 -1.17289e-11 -1.1509e-09 -10.2786 0.731801 -0.0259123 1.08638e-09 -1.17264e-11 -1.15091e-09 -2.22167 -0.733487 0.20892 -2.03217e-16 0.0 -3.88251e-19 3.49434 -33.2571 9.67888 0.00173159 8.59643 0.184597 -3.14959 -15.4145 -8.83665 2.03217e-16 0.0 3.88251e-19 -0.844642 -31.2242 -11.5507 0.0161932 6.54512 -0.0759741 1.20143 -4.34169 5.26293
